<svg width="60" height="60" viewBox="0 0 60 60" fill="none" xmlns="http://www.w3.org/2000/svg">
<g clip-path="url(#clip0_221_725)">
<path fill-rule="evenodd" clip-rule="evenodd" d="M7.5 6.42857C7.21584 6.42857 6.94332 6.54145 6.74239 6.74239C6.54145 6.94332 6.42857 7.21584 6.42857 7.5V13.9286C6.42857 14.7811 6.08992 15.5986 5.48713 16.2014C4.88433 16.8042 4.06677 17.1429 3.21429 17.1429C2.3618 17.1429 1.54424 16.8042 0.941442 16.2014C0.338647 15.5986 0 14.7811 0 13.9286L0 7.5C0 5.51088 0.790176 3.60322 2.1967 2.1967C3.60322 0.790176 5.51088 0 7.5 0L13.9286 0C14.7811 0 15.5986 0.338647 16.2014 0.941442C16.8042 1.54424 17.1429 2.3618 17.1429 3.21429C17.1429 4.06677 16.8042 4.88433 16.2014 5.48713C15.5986 6.08992 14.7811 6.42857 13.9286 6.42857H7.5ZM33.2143 19.2857C33.2143 18.4332 32.8756 17.6157 32.2728 17.0129C31.67 16.4101 30.8525 16.0714 30 16.0714C29.1475 16.0714 28.33 16.4101 27.7272 17.0129C27.1244 17.6157 26.7857 18.4332 26.7857 19.2857V31.0714H23.5714C22.7189 31.0714 21.9014 31.4101 21.2986 32.0129C20.6958 32.6157 20.3571 33.4332 20.3571 34.2857C20.3571 35.1382 20.6958 35.9558 21.2986 36.5586C21.9014 37.1614 22.7189 37.5 23.5714 37.5H30C30.8525 37.5 31.67 37.1614 32.2728 36.5586C32.8756 35.9558 33.2143 35.1382 33.2143 34.2857V19.2857ZM60 46.0714C60 45.2189 59.6614 44.4014 59.0586 43.7986C58.4558 43.1958 57.6382 42.8571 56.7857 42.8571C55.9332 42.8571 55.1157 43.1958 54.5129 43.7986C53.9101 44.4014 53.5714 45.2189 53.5714 46.0714V52.5C53.5714 52.7842 53.4585 53.0567 53.2576 53.2576C53.0567 53.4585 52.7842 53.5714 52.5 53.5714H46.0714C45.2189 53.5714 44.4014 53.9101 43.7986 54.5129C43.1958 55.1157 42.8571 55.9332 42.8571 56.7857C42.8571 57.6382 43.1958 58.4558 43.7986 59.0586C44.4014 59.6614 45.2189 60 46.0714 60H52.5C54.4891 60 56.3968 59.2098 57.8033 57.8033C59.2098 56.3968 60 54.4891 60 52.5V46.0714ZM6.42857 46.0714C6.42857 45.2189 6.08992 44.4014 5.48713 43.7986C4.88433 43.1958 4.06677 42.8571 3.21429 42.8571C2.3618 42.8571 1.54424 43.1958 0.941442 43.7986C0.338647 44.4014 0 45.2189 0 46.0714L0 52.5C0 54.4891 0.790176 56.3968 2.1967 57.8033C3.60322 59.2098 5.51088 60 7.5 60H13.9286C14.7811 60 15.5986 59.6614 16.2014 59.0586C16.8042 58.4558 17.1429 57.6382 17.1429 56.7857C17.1429 55.9332 16.8042 55.1157 16.2014 54.5129C15.5986 53.9101 14.7811 53.5714 13.9286 53.5714H7.5C7.21584 53.5714 6.94332 53.4585 6.74239 53.2576C6.54145 53.0567 6.42857 52.7842 6.42857 52.5V46.0714ZM42.8571 3.21429C42.8571 2.3618 43.1958 1.54424 43.7986 0.941442C44.4014 0.338647 45.2189 0 46.0714 0L52.5 0C54.4891 0 56.3968 0.790176 57.8033 2.1967C59.2098 3.60322 60 5.51088 60 7.5V13.9286C60 14.7811 59.6614 15.5986 59.0586 16.2014C58.4558 16.8042 57.6382 17.1429 56.7857 17.1429C55.9332 17.1429 55.1157 16.8042 54.5129 16.2014C53.9101 15.5986 53.5714 14.7811 53.5714 13.9286V7.5C53.5714 7.21584 53.4585 6.94332 53.2576 6.74239C53.0567 6.54145 52.7842 6.42857 52.5 6.42857H46.0714C45.2189 6.42857 44.4014 6.08992 43.7986 5.48713C43.1958 4.88433 42.8571 4.06677 42.8571 3.21429ZM21.5014 40.5257C20.8831 39.9381 20.0566 39.6201 19.2039 39.6418C18.3511 39.6635 17.5419 40.0231 16.9543 40.6414C16.3666 41.2598 16.0487 42.0862 16.0704 42.939C16.0921 43.7917 16.4517 44.6009 17.07 45.1886C20.5588 48.5035 25.1875 50.3519 30 50.3519C34.8125 50.3519 39.4412 48.5035 42.93 45.1886C43.5483 44.6009 43.9079 43.7917 43.9296 42.939C43.9513 42.0862 43.6334 41.2598 43.0457 40.6414C42.4581 40.0231 41.6489 39.6635 40.7961 39.6418C39.9434 39.6201 39.1169 39.9381 38.4986 40.5257C36.2049 42.7034 33.1628 43.9176 30 43.9176C26.8372 43.9176 23.7951 42.7034 21.5014 40.5257ZM21.4286 19.2857C21.4286 20.4224 20.977 21.5124 20.1733 22.3162C19.3696 23.1199 18.2795 23.5714 17.1429 23.5714C16.0062 23.5714 14.9161 23.1199 14.1124 22.3162C13.3087 21.5124 12.8571 20.4224 12.8571 19.2857C12.8571 18.1491 13.3087 17.059 14.1124 16.2553C14.9161 15.4515 16.0062 15 17.1429 15C18.2795 15 19.3696 15.4515 20.1733 16.2553C20.977 17.059 21.4286 18.1491 21.4286 19.2857ZM42.8571 23.5714C43.9938 23.5714 45.0839 23.1199 45.8876 22.3162C46.6913 21.5124 47.1429 20.4224 47.1429 19.2857C47.1429 18.1491 46.6913 17.059 45.8876 16.2553C45.0839 15.4515 43.9938 15 42.8571 15C41.7205 15 40.6304 15.4515 39.8267 16.2553C39.023 17.059 38.5714 18.1491 38.5714 19.2857C38.5714 20.4224 39.023 21.5124 39.8267 22.3162C40.6304 23.1199 41.7205 23.5714 42.8571 23.5714Z" fill="black"/>
</g>
<defs>
<clipPath id="clip0_221_725">
<rect width="60" height="60" fill="white"/>
</clipPath>
</defs>
</svg>
