<svg width="16" height="17" viewBox="0 0 16 17" fill="none" xmlns="http://www.w3.org/2000/svg">
<path d="M6 4.1V6.5H3.6V4.1H6ZM7.2 2.9H2.4V7.7H7.2V2.9ZM6 10.5V12.9H3.6V10.5H6ZM7.2 9.3H2.4V14.1H7.2V9.3ZM12.4 4.1V6.5H10V4.1H12.4ZM13.6 2.9H8.8V7.7H13.6V2.9ZM8.8 9.3H10V10.5H8.8V9.3ZM10 10.5H11.2V11.7H10V10.5ZM11.2 9.3H12.4V10.5H11.2V9.3ZM8.8 11.7H10V12.9H8.8V11.7ZM10 12.9H11.2V14.1H10V12.9ZM11.2 11.7H12.4V12.9H11.2V11.7ZM12.4 10.5H13.6V11.7H12.4V10.5ZM12.4 12.9H13.6V14.1H12.4V12.9ZM16 4.5H14.4V2.1H12V0.5H16V4.5ZM16 16.5V12.5H14.4V14.9H12V16.5H16ZM0 16.5H4V14.9H1.6V12.5H0V16.5ZM0 0.5V4.5H1.6V2.1H4V0.5H0Z" fill="#EDEDED"/>
</svg>
