<svg width="23" height="25" viewBox="0 0 23 25" fill="none" xmlns="http://www.w3.org/2000/svg">
<path d="M23 19.9286V21.0714H0.782837V19.9286L3.25141 17.6429V10.7857C3.25141 7.24286 5.75701 4.12286 9.42284 3.11714V2.78571C9.42284 2.17951 9.68292 1.59812 10.1459 1.16947C10.6088 0.740816 11.2367 0.5 11.8914 0.5C12.5461 0.5 13.174 0.740816 13.637 1.16947C14.0999 1.59812 14.36 2.17951 14.36 2.78571V3.11714C18.0258 4.12286 20.5314 7.24286 20.5314 10.7857V17.6429L23 19.9286ZM14.36 22.2143C14.36 22.8205 14.0999 23.4019 13.637 23.8305C13.174 24.2592 12.5461 24.5 11.8914 24.5C11.2367 24.5 10.6088 24.2592 10.1459 23.8305C9.68292 23.4019 9.42284 22.8205 9.42284 22.2143" fill="#E5E2E2"/>
</svg>
